<svg width="1280" height="682" viewBox="0 0 1280 682" fill="none" xmlns="http://www.w3.org/2000/svg">
  <title>GBATC logo</title>
  <defs>
    <linearGradient id="mainBlue" x1="120" y1="398" x2="894" y2="224" gradientUnits="userSpaceOnUse">
      <stop stop-color="#06A8DB"/>
      <stop offset="0.58" stop-color="#0097CF"/>
      <stop offset="1" stop-color="#007EC1"/>
    </linearGradient>
    <linearGradient id="topBlue" x1="624" y1="8" x2="891" y2="164" gradientUnits="userSpaceOnUse">
      <stop stop-color="#0064AD"/>
      <stop offset="1" stop-color="#07539D"/>
    </linearGradient>
    <linearGradient id="goldMark" x1="788" y1="444" x2="982" y2="484" gradientUnits="userSpaceOnUse">
      <stop stop-color="#FDB71B"/>
      <stop offset="1" stop-color="#FFE15A"/>
    </linearGradient>
  </defs>
  <rect width="1280" height="682" fill="#FFFFFF"/>
  <path d="M112 373C285 270 475 187 650 171C760 161 856 188 895 260C949 360 858 485 527 642C625 506 717 395 710 337C698 242 499 286 112 373Z" fill="url(#mainBlue)"/>
  <path d="M585 4C674 79 742 116 811 122C908 131 928 34 857 12C812 -2 714 10 638 0C654 22 676 41 698 54C655 47 620 28 585 4Z" fill="url(#topBlue)"/>
  <path d="M861 410C944 424 1010 479 980 545C959 592 901 625 825 657C866 557 861 498 794 493C810 452 831 426 861 410Z" fill="url(#goldMark)"/>
</svg>
